<svg width="1280" height="420" viewBox="0 0 1280 420" fill="none" xmlns="http://www.w3.org/2000/svg">
  <defs>
    <linearGradient id="bg" x1="0" y1="0" x2="1280" y2="420" gradientUnits="userSpaceOnUse">
      <stop offset="0" stop-color="#f4f7ff"/>
      <stop offset="0.5" stop-color="#eef4ff"/>
      <stop offset="1" stop-color="#f3f5fa"/>
    </linearGradient>
    <linearGradient id="accent" x1="0" y1="0" x2="1" y2="1">
      <stop offset="0" stop-color="#2563eb"/>
      <stop offset="1" stop-color="#7c3aed"/>
    </linearGradient>
    <filter id="shadow" x="-20%" y="-20%" width="140%" height="140%">
      <feDropShadow dx="0" dy="10" stdDeviation="18" flood-color="#1f2937" flood-opacity="0.14"/>
    </filter>
  </defs>

  <rect width="1280" height="420" rx="28" fill="url(#bg)"/>
  <circle cx="1040" cy="90" r="220" fill="#dbe7ff" opacity="0.55"/>
  <circle cx="180" cy="360" r="160" fill="#d9e8ff" opacity="0.45"/>

  <g filter="url(#shadow)" transform="translate(150 90)">
    <rect x="0" y="0" width="120" height="120" rx="24" fill="url(#accent)"/>
    <path d="M60 20L98 42V84L60 106L22 84V42L60 20Z" fill="white" opacity="0.96"/>
    <path d="M60 20V62M22 42L60 62L98 42M60 62V106" stroke="#2563eb" stroke-opacity="0.45" stroke-width="4"/>
  </g>

  <text x="310" y="165" fill="#0f172a" font-family="Inter, Segoe UI, Arial, sans-serif" font-size="64" font-weight="800">
    PIMO Criativo
  </text>
  <text x="310" y="216" fill="#334155" font-family="Inter, Segoe UI, Arial, sans-serif" font-size="30" font-weight="600">
    Plataforma de design de mobiliário com visualização 3D e fluxo industrial
  </text>
  <text x="310" y="274" fill="#475569" font-family="Inter, Segoe UI, Arial, sans-serif" font-size="24" font-weight="500">
    React + TypeScript + Vite + Three.js + Zustand
  </text>

  <rect x="310" y="304" width="500" height="8" rx="4" fill="#c7d2fe"/>
  <rect x="310" y="304" width="380" height="8" rx="4" fill="url(#accent)"/>
</svg>
